<svg width="26" height="19" viewBox="0 0 26 19" fill="none" xmlns="http://www.w3.org/2000/svg">
<path d="M25.5074 6.27396C25.7055 6.12057 26 6.26406 26 6.50651V16.625C26 17.9362 24.9082 19 23.5625 19H2.4375C1.0918 19 0 17.9362 0 16.625V6.51146C0 6.26406 0.289453 6.12552 0.492578 6.27891C1.63008 7.13984 3.13828 8.23333 8.31797 11.8997C9.38945 12.6617 11.1973 14.2648 13 14.2549C14.8129 14.2698 16.6562 12.632 17.6871 11.8997C22.8668 8.23333 24.3699 7.1349 25.5074 6.27396ZM13 12.6667C14.1781 12.6865 15.8742 11.2219 16.7273 10.6182C23.466 5.85339 23.9789 5.43776 25.5328 4.25026C25.8273 4.0276 26 3.68125 26 3.3151V2.375C26 1.0638 24.9082 0 23.5625 0H2.4375C1.0918 0 0 1.0638 0 2.375V3.3151C0 3.68125 0.172656 4.02266 0.467187 4.25026C2.02109 5.43281 2.53398 5.85339 9.27266 10.6182C10.1258 11.2219 11.8219 12.6865 13 12.6667Z" fill="#20222F"/>
</svg>
